<?xml version="1.0" encoding="UTF-8"?>
<svg width="131px" height="131px" viewBox="0 0 131 131" version="1.1" xmlns="http://www.w3.org/2000/svg" xmlns:xlink="http://www.w3.org/1999/xlink">
    <!-- Generator: Sketch 63.1 (92452) - https://sketch.com -->
    <title>Group 16</title>
    <desc>Created with Sketch.</desc>
    <g id="Design" stroke="none" stroke-width="1" fill="none" fill-rule="evenodd">
        <g id="B&amp;F-Website-Home" transform="translate(-540.000000, -2271.000000)">
            <g id="Group-16" transform="translate(540.000000, 2271.000000)">
                <circle id="Oval-Copy" fill="#FCE5E9" cx="65.5" cy="65.5" r="65.5"></circle>
                <g id="Group-15" transform="translate(39.000000, 46.000000)" stroke="#000000" stroke-linecap="round" stroke-linejoin="round" stroke-width="3">
                    <path d="M45.0869,13.7033 L45.0869,3.7983 C45.0869,1.9763 43.6099,0.5003 41.7899,0.5003 L3.7979,0.5003 C1.9769,0.5003 0.4999,1.9763 0.4999,3.7983 L0.4999,26.0943 C0.4999,27.9153 1.9769,29.3913 3.7979,29.3913 L9.9329,29.3913 L9.9329,39.5573 L19.5989,29.3913 L28.6839,29.3913" id="Stroke-1"></path>
                    <path d="M53.3378,24.7579 C53.5158,25.3449 53.6398,25.9549 53.7048,26.5819" id="Stroke-3"></path>
                    <path d="M34.4648,24.8048 C35.6758,20.7358 39.4448,17.7678 43.9078,17.7678 C48.3538,17.7678 52.1118,20.7128 53.3378,24.7578" id="Stroke-5"></path>
                    <polyline id="Stroke-7" points="55.8222 23.2042 54.0882 26.9152 50.3772 25.1822"></polyline>
                    <path d="M34.7792,31.6359 C34.6012,31.0489 34.4762,30.4389 34.4112,29.8109" id="Stroke-9"></path>
                    <path d="M53.6513,31.588 C52.4413,35.658 48.6713,38.626 44.2083,38.626 C39.7623,38.626 36.0053,35.681 34.7793,31.636" id="Stroke-11"></path>
                    <polyline id="Stroke-13" points="32.2949 33.1896 34.0279 29.4776 37.7389 31.2106"></polyline>
                </g>
            </g>
        </g>
    </g>
</svg>