<?xml version="1.0" encoding="UTF-8"?>
<svg width="262px" height="53px" viewBox="0 0 262 53" version="1.1" xmlns="http://www.w3.org/2000/svg" xmlns:xlink="http://www.w3.org/1999/xlink">
    <!-- Generator: Sketch 63.1 (92452) - https://sketch.com -->
    <title>Logo/Full</title>
    <desc>Created with Sketch.</desc>
    <defs>
        <polygon id="path-1" points="0 0.478639175 52.0305745 0.478639175 52.0305745 52.4536082 0 52.4536082"></polygon>
    </defs>
    <g id="Symbols" stroke="none" stroke-width="1" fill="none" fill-rule="evenodd">
        <g id="Element/Header" transform="translate(-150.000000, -34.000000)">
            <g id="Logo/Full" transform="translate(150.000000, 34.000000)">
                <g id="Group-32">
                    <g id="Group-3" transform="translate(0.000000, 0.067971)">
                        <mask id="mask-2" fill="white">
                            <use xlink:href="#path-1"></use>
                        </mask>
                        <g id="Clip-2"></g>
                        <path d="M39.9058271,42.0111876 C36.0064576,44.2595897 31.021347,42.925301 28.7700067,39.0300742 C26.5186664,35.1353938 27.8549211,30.155033 31.7537436,27.9060845 C33.3344952,26.9941567 35.0930129,26.6810742 36.7771424,26.8794144 L38.2085704,22.7874866 L42.8895641,30.8871979 C45.1403574,34.7818784 43.8046497,39.7622392 39.9058271,42.0111876 L39.9058271,42.0111876 Z M21.9366747,25.0260536 C20.3559232,24.1141258 19.2045453,22.7492392 18.5350505,21.1936619 L14.2719441,22.0006825 L18.9529378,13.9015175 C21.2042781,10.0068371 26.1899357,8.67200206 30.0887582,10.9209505 C33.9881278,13.169899 35.3238355,18.1502598 33.0730422,22.0449402 C30.8217019,25.940167 25.8354973,27.2744557 21.9366747,25.0260536 L21.9366747,25.0260536 Z M16.1994764,43.1034247 C11.6973428,43.1034247 8.0473929,39.4573526 8.0473929,34.9600021 C8.0473929,30.4626515 11.6973428,26.8165794 16.1994764,26.8165794 C20.70161,26.8165794 24.3515599,30.4626515 24.3515599,34.9600021 C24.3515599,36.7838577 23.7438731,38.4618268 22.7303324,39.8190639 L25.5614639,43.1034247 L16.1994764,43.1034247 Z M42.6817144,0.47831134 L9.34864134,0.47831134 C4.18521754,0.47831134 -0.000218789144,4.65930103 -0.000218789144,9.81723918 L-0.000218789144,43.114899 C-0.000218789144,48.2722907 4.18521754,52.4538268 9.34864134,52.4538268 L42.6817144,52.4538268 C47.8451382,52.4538268 52.0305745,48.2722907 52.0305745,43.114899 L52.0305745,9.81723918 C52.0305745,4.65930103 47.8451382,0.47831134 42.6817144,0.47831134 L42.6817144,0.47831134 Z" id="Fill-1" fill="#FF6464" mask="url(#mask-2)"></path>
                    </g>
                    <path d="M23.6291182,19.9249402 C23.148876,20.7560021 22.0855608,21.0406722 21.2530681,20.5609402 C20.4216693,20.0812082 20.1361495,19.0184763 20.6169386,18.1874144 C21.0971808,17.3563526 22.160496,17.0716825 22.9924418,17.5519608 C23.8243875,18.0316928 24.1093603,19.0938784 23.6291182,19.9249402" id="Fill-4" fill="#FF6464"></path>
                    <path d="M19.0241537,36.1483495 C19.984638,36.1483495 20.7635273,36.9258649 20.7635273,37.8858753 C20.7635273,38.8453392 19.984638,39.6228546 19.0241537,39.6228546 C18.0636693,39.6228546 17.28478,38.8453392 17.28478,37.8858753 C17.28478,36.9258649 18.0636693,36.1483495 19.0241537,36.1483495" id="Fill-6" fill="#FF6464"></path>
                    <path d="M35.3884877,32.0226546 C34.9082455,31.1915928 35.1937653,30.1294072 36.0251641,29.6496753 C36.8571098,29.1693969 37.920972,29.4546134 38.4012142,30.2851289 C38.8814564,31.1161907 38.5959365,32.1789227 37.7645378,32.6586546 C36.9325921,33.1383866 35.8687299,32.8537165 35.3884877,32.0226546" id="Fill-8" fill="#FF6464"></path>
                    <path d="M73.5542301,32.3484134 L76.2524472,32.3484134 C78.6181048,32.3484134 79.5506935,31.6495784 79.5506935,30.0191454 C79.5506935,28.3548361 78.5519211,27.6232175 76.1189858,27.6232175 L73.5542301,27.6232175 L73.5542301,32.3484134 Z M73.5542301,22.9635887 L76.1189858,22.9635887 C78.351729,22.9635887 79.3510484,22.2647536 79.3510484,20.7009804 C79.3510484,19.2033206 78.4179127,18.4711557 76.3191779,18.4711557 L73.5542301,18.4711557 L73.5542301,22.9635887 Z M77.1855829,13.5787639 C83.0819503,13.5787639 85.8140797,16.0413515 85.8140797,19.7021763 C85.8140797,22.4314031 84.5812029,24.0957124 81.8829858,25.0273103 L81.8829858,25.0934237 C84.8475787,25.7589289 86.414109,27.6893309 86.414109,30.6179907 C86.414109,34.6782278 83.1153157,37.2741351 77.5181424,37.2741351 L67.1240171,37.2741351 L67.1240171,13.5787639 L77.1855829,13.5787639 Z" id="Fill-10" fill="#1D1D1B"></path>
                    <path d="M98.7753674,29.6860649 C98.0752422,29.7527247 96.9419144,29.8854979 96.1761524,30.0521474 C94.7764489,30.3515701 94.2442443,30.9837454 94.2442443,32.0158794 C94.2442443,33.047467 94.8770919,33.779632 96.1094217,33.779632 C96.809,33.779632 97.575309,33.5463227 98.0418768,32.9808072 C98.6413591,32.3153021 98.7753674,31.5831371 98.7753674,30.3182402 L98.7753674,29.6860649 Z M104.938658,26.8573948 L104.938658,32.348632 C104.938658,34.6117866 105.10439,36.0427866 105.470862,37.2738072 L99.7074092,37.2738072 C99.5405825,36.6749619 99.4410334,35.909467 99.4410334,35.1439722 L99.3748497,35.1439722 C98.0418768,36.8743948 96.1761524,37.7398794 93.8777724,37.7398794 C90.1796889,37.7398794 87.980858,35.4433948 87.980858,32.4480753 C87.980858,29.4533021 89.8460355,27.6895495 94.8770919,26.9240546 C96.1094217,26.7246216 97.7749541,26.5579722 98.7753674,26.4913124 L98.7753674,25.892467 C98.7753674,24.2281577 97.9751461,23.5626526 96.7761816,23.5626526 C95.5433048,23.5626526 94.8103612,24.2614876 94.7764489,25.7258175 L88.6804363,25.7258175 C88.8800814,22.5977247 91.145643,19.8357144 96.8429123,19.8357144 C102.372808,19.8357144 104.938658,22.3649619 104.938658,26.8573948 L104.938658,26.8573948 Z" id="Fill-12" fill="#1D1D1B"></path>
                    <path d="M125.493734,27.0237711 L118.863876,27.0237711 C118.731508,25.4261216 117.865103,24.5945134 116.665592,24.5945134 C115.06679,24.5945134 114.133654,26.0582969 114.133654,28.7541938 C114.133654,31.5500804 115.06679,33.0471938 116.665592,33.0471938 C117.931834,33.0471938 118.798239,32.082266 118.863876,30.3185134 L125.493734,30.3185134 C125.127262,34.9775959 121.662736,37.806266 116.565496,37.806266 C111.002235,37.806266 107.404247,34.3120907 107.404247,28.7541938 C107.404247,23.2962866 110.968322,19.8354412 116.565496,19.8354412 C121.596552,19.8354412 125.060531,22.6313278 125.493734,27.0237711" id="Fill-14" fill="#1D1D1B"></path>
                    <polygon id="Fill-16" fill="#1D1D1B" points="138.321396 37.2739165 134.457033 29.8856072 134.390849 29.8856072 134.390849 37.2739165 127.994548 37.2739165 127.994548 13.5785454 134.390849 13.5785454 134.390849 26.8241742 134.457033 26.8241742 138.022202 20.3680093 145.584101 20.3680093 139.921291 28.3551639 146.150218 37.2739165"></polygon>
                    <path d="M152.415027,18.204899 C152.415027,19.7358887 152.948872,20.7008165 155.247252,23.0306309 C158.511586,21.4329814 159.177799,20.0019814 159.177799,18.204899 C159.177799,16.3411567 157.945469,15.0101464 155.779457,15.0101464 C153.714634,15.0101464 152.415027,16.2083835 152.415027,18.204899 L152.415027,18.204899 Z M162.176304,32.7809918 L154.547127,25.1599196 C151.082054,26.8575588 150.083281,28.5879814 150.083281,30.9839093 C150.083281,33.7459196 152.415027,35.8096412 155.913465,35.8096412 C158.445403,35.8096412 160.577503,34.6780639 162.176304,32.7809918 L162.176304,32.7809918 Z M163.576008,34.1786619 C161.677465,36.4084866 158.978154,37.7400433 155.8801,37.7400433 C151.049235,37.7400433 147.818267,34.9441567 147.818267,31.0172392 C147.818267,28.022466 149.517165,25.6593216 153.281432,23.8622392 C150.983052,21.4996412 150.38357,20.2680742 150.38357,18.1710227 C150.38357,15.2095794 152.615219,13.1464041 155.779457,13.1464041 C159.111615,13.1464041 161.21035,15.2095794 161.21035,18.1710227 C161.21035,20.8335897 160.110935,22.5306825 156.54686,24.2949814 L163.342997,31.0172392 C164.409048,29.1207134 164.975165,26.6909093 164.975165,24.0616722 L167.14063,24.0616722 C167.14063,27.290301 166.340956,30.2184144 164.875068,32.514899 L169.672567,37.2739711 L166.673515,37.2739711 L163.576008,34.1786619 Z" id="Fill-18" fill="#1D1D1B"></path>
                    <polygon id="Fill-20" fill="#1D1D1B" points="178.902078 19.2363227 178.902078 23.6959722 188.429798 23.6959722 188.429798 29.3205289 178.902078 29.3205289 178.902078 37.2738072 172.238855 37.2738072 172.238855 13.5789825 189.096558 13.5789825 189.096558 19.2363227"></polygon>
                    <path d="M197.293494,28.8208536 C197.293494,31.4834206 198.292813,33.0471938 200.025076,33.0471938 C201.757886,33.0471938 202.756658,31.4834206 202.756658,28.8208536 C202.756658,26.1582866 201.757886,24.5945134 200.025076,24.5945134 C198.292813,24.5945134 197.293494,26.1582866 197.293494,28.8208536 M209.486066,28.8208536 C209.486066,34.3120907 205.788529,37.806266 200.025076,37.806266 C194.261623,37.806266 190.563539,34.3120907 190.563539,28.8208536 C190.563539,23.3296165 194.261623,19.8354412 200.025076,19.8354412 C205.788529,19.8354412 209.486066,23.3296165 209.486066,28.8208536" id="Fill-22" fill="#1D1D1B"></path>
                    <path d="M224.712094,20.3013495 L224.712094,25.7592567 C224.145977,25.6259371 223.413581,25.5598237 222.780733,25.5598237 C220.015238,25.5598237 218.516533,27.2902464 218.516533,30.4516691 L218.516533,37.2739165 L212.120232,37.2739165 L212.120232,20.3680093 L218.049418,20.3680093 L218.049418,22.6639474 L218.115602,22.6639474 C219.349025,20.8674113 220.947827,20.1013701 223.046562,20.1013701 C223.579861,20.1013701 224.212708,20.1685763 224.712094,20.3013495" id="Fill-24" fill="#1D1D1B"></path>
                    <path d="M237.706474,32.4151278 L237.706474,37.1403237 C236.873981,37.4069629 235.574374,37.573066 234.607873,37.573066 C230.010566,37.573066 228.01138,35.8426433 228.01138,31.8157361 L228.01138,24.9273753 L225.446077,24.9273753 L225.446077,20.3682825 L228.01138,20.3682825 L228.01138,15.6425402 L234.407681,15.6425402 L234.407681,20.3682825 L237.539647,20.3682825 L237.539647,24.9273753 L234.407681,24.9273753 L234.407681,30.0858598 C234.407681,31.8829423 234.974891,32.5817773 236.506415,32.5817773 C236.939618,32.5817773 237.406186,32.5151175 237.706474,32.4151278" id="Fill-26" fill="#1D1D1B"></path>
                    <path d="M246.801484,21.8986711 C247.80135,20.6676505 249.300603,19.9021557 251.232511,19.9021557 C255.030691,19.9021557 257.429167,22.2980835 257.429167,26.8577227 L257.429167,37.2741351 L251.032319,37.2741351 L251.032319,27.656001 C251.032319,25.8255887 250.3672,24.8273309 249.034227,24.8273309 C247.56834,24.8273309 246.735847,26.025568 246.735847,28.7875784 L246.735847,37.2741351 L240.339547,37.2741351 L240.339547,13.5787639 L246.735847,13.5787639 L246.735847,21.8986711 L246.801484,21.8986711 Z" id="Fill-28" fill="#1D1D1B"></path>
                    <path d="M259.148959,15.5460474 L259.448153,15.5460474 C259.747347,15.5460474 259.87151,15.4214701 259.87151,15.2138412 C259.87151,15.0395423 259.738595,14.9231608 259.473314,14.9231608 L259.148959,14.9231608 L259.148959,15.5460474 Z M259.66366,14.392068 C260.262048,14.392068 260.569994,14.6745526 260.569994,15.1225938 C260.569994,15.4460577 260.378554,15.6618825 260.06295,15.7618722 L260.06295,15.7782639 C260.254391,15.8367278 260.353393,15.9607588 260.486307,16.2929649 L260.744478,16.9655732 L259.988015,16.9655732 L259.772508,16.4006041 C259.688821,16.1519959 259.572316,16.0607485 259.331648,16.0607485 L259.148959,16.0607485 L259.148959,16.9655732 L258.425861,16.9655732 L258.425861,14.392068 L259.66366,14.392068 Z M257.761289,15.7203464 C257.761289,16.807666 258.46743,17.5294495 259.514337,17.5294495 C260.561243,17.5294495 261.267932,16.807666 261.267932,15.7203464 C261.267932,14.6330268 260.561243,13.9106969 259.514337,13.9106969 C258.46743,13.9106969 257.761289,14.6330268 257.761289,15.7203464 L257.761289,15.7203464 Z M261.599944,15.7203464 C261.599944,17.0065526 260.769092,17.8616557 259.514337,17.8616557 C258.259581,17.8616557 257.428729,17.0065526 257.428729,15.7203464 C257.428729,14.4335938 258.259581,13.5784907 259.514337,13.5784907 C260.769092,13.5784907 261.599944,14.4335938 261.599944,15.7203464 L261.599944,15.7203464 Z" id="Fill-30" fill="#1D1D1B"></path>
                </g>
            </g>
        </g>
    </g>
</svg>